<svg width="70" height="70" viewBox="0 0 70 70" fill="none" xmlns="http://www.w3.org/2000/svg">
<path d="M2.40503 64.7389L6.15318 19.3145H38.9385L46.4239 59.4545L47.4046 64.7389H2.40503Z" stroke="#756457" stroke-width="2.33333" stroke-linecap="round" stroke-linejoin="round"/>
<path d="M38.9385 19.3145L34.4167 64.7389" stroke="#756457" stroke-width="2.33333" stroke-linecap="round" stroke-linejoin="round"/>
<path d="M31.5403 28.4569V14.0418C31.5403 9.19314 27.6069 5.25977 22.7583 5.25977C17.9097 5.25977 13.9763 9.19314 13.9763 14.0418V28.4569" stroke="#756457" stroke-width="2.33333" stroke-linecap="round" stroke-linejoin="round"/>
<path d="M56.971 38.8731V29.3175C56.971 26.1033 54.3669 23.4883 51.1417 23.4883C47.9275 23.4883 45.3125 26.0924 45.3125 29.3175V38.8731" stroke="#756457" stroke-width="2.33333" stroke-linecap="round" stroke-linejoin="round"/>
<path d="M2.94971 58.1797H23.9894" stroke="#756457" stroke-width="2.33333" stroke-linecap="round" stroke-linejoin="round"/>
<path d="M42.0765 14.946C43.6591 14.946 44.9421 13.6631 44.9421 12.0804C44.9421 10.4978 43.6591 9.21484 42.0765 9.21484C40.4939 9.21484 39.2109 10.4978 39.2109 12.0804C39.2109 13.6631 40.4939 14.946 42.0765 14.946Z" stroke="#FD5A13" stroke-width="2.33333" stroke-linecap="round" stroke-linejoin="round"/>
<path d="M61.8197 25.0456C63.4023 25.0456 64.6853 23.7627 64.6853 22.18C64.6853 20.5974 63.4023 19.3145 61.8197 19.3145C60.2371 19.3145 58.9541 20.5974 58.9541 22.18C58.9541 23.7627 60.2371 25.0456 61.8197 25.0456Z" stroke="#FD5A13" stroke-width="2.33333" stroke-linecap="round" stroke-linejoin="round"/>
<path d="M44.1357 64.7396H67.5943L62.5496 33.4688H41.5752" stroke="#756457" stroke-width="2.33333" stroke-linecap="round" stroke-linejoin="round"/>
<path d="M62.5496 33.4688L59.7385 64.7396" stroke="#756457" stroke-width="2.33333" stroke-linecap="round" stroke-linejoin="round"/>
<path d="M54.2689 59.6191H46.5002" stroke="#756457" stroke-width="2.33333" stroke-linecap="round" stroke-linejoin="round"/>
<path d="M21.331 47.5581C29.492 41.511 29.1978 37.741 29.1978 37.741C29.1978 35.4965 27.3782 33.666 25.1228 33.666C23.3468 33.666 21.8322 34.8101 21.2766 36.39C20.7209 34.7992 19.2064 33.666 17.4304 33.666C15.1858 33.666 13.3553 35.4856 13.3553 37.741C13.3553 37.741 13.0611 41.5219 21.2221 47.5581" stroke="#FD5A13" stroke-width="2.33333" stroke-linecap="round" stroke-linejoin="round"/>
</svg>
