<svg width="71" height="70" viewBox="0 0 71 70" fill="none" xmlns="http://www.w3.org/2000/svg">
<path d="M18.4406 23.7578L18.8913 24.9705C19.342 26.1939 20.3079 27.1597 21.542 27.6212L22.7547 28.0719L21.542 28.5227C20.3186 28.9734 19.3528 29.9392 18.8913 31.1734L18.4406 32.386L17.9899 31.1734C17.5391 29.95 16.5733 28.9841 15.3391 28.5227L14.1265 28.0719L15.3391 27.6212C16.5625 27.1705 17.5284 26.2046 17.9899 24.9705L18.4406 23.7578Z" stroke="#FD5A13" stroke-width="2" stroke-linecap="round" stroke-linejoin="round"/>
<path d="M25.7382 10.0762L26.1889 11.2888C26.6396 12.5122 27.6055 13.4781 28.8396 13.9396L30.0523 14.3903L28.8396 14.841C27.6162 15.2917 26.6504 16.2576 26.1889 17.4917L25.7382 18.7044L25.2875 17.4917C24.8367 16.2683 23.8709 15.3025 22.6368 14.841L21.4241 14.3903L22.6368 13.9396C23.8602 13.4888 24.826 12.523 25.2875 11.2888L25.7382 10.0762Z" stroke="#FD5A13" stroke-width="2" stroke-linecap="round" stroke-linejoin="round"/>
<path d="M54.6061 10.0762L55.0568 11.2888C55.5076 12.5122 56.4734 13.4781 57.7075 13.9396L58.9202 14.3903L57.7075 14.841C56.4841 15.2917 55.5183 16.2576 55.0568 17.4917L54.6061 18.7044L54.1554 17.4917C53.7047 16.2683 52.7388 15.3025 51.5047 14.841L50.292 14.3903L51.5047 13.9396C52.7281 13.4888 53.6939 12.523 54.1554 11.2888L54.6061 10.0762Z" stroke="#FD5A13" stroke-width="2" stroke-linecap="round" stroke-linejoin="round"/>
<path d="M62.0431 23.7578L62.4938 24.9705C62.9446 26.1939 63.9104 27.1597 65.1446 27.6212L66.3572 28.0719L65.1446 28.5227C63.9212 28.9734 62.9553 29.9392 62.4938 31.1734L62.0431 32.386L61.5924 31.1734C61.1417 29.95 60.1758 28.9841 58.9417 28.5227L57.729 28.0719L58.9417 27.6212C60.1651 27.1705 61.1309 26.2046 61.5924 24.9705L62.0431 23.7578Z" stroke="#FD5A13" stroke-width="2" stroke-linecap="round" stroke-linejoin="round"/>
<path d="M44.7654 11.9316H35.5148C34.4716 11.9316 33.626 12.7773 33.626 13.8204C33.626 14.8635 34.4716 15.7092 35.5148 15.7092H44.7654C45.8085 15.7092 46.6542 14.8635 46.6542 13.8204C46.6542 12.7773 45.8085 11.9316 44.7654 11.9316Z" stroke="#756457" stroke-width="2" stroke-linecap="round" stroke-linejoin="round"/>
<path d="M43.3917 11.932C43.3917 11.932 49.7448 6.80226 46.2249 4.64521C46.2249 4.64521 45.2268 4.32326 43.5527 4.64521C43.5527 4.64521 42.383 4.6774 42.0181 3.73302C41.6532 2.78864 40.784 2.35938 40.1293 2.35938C39.4747 2.35938 38.5947 2.77791 38.2405 3.73302C37.8864 4.68814 36.7059 4.64521 36.7059 4.64521C35.0318 4.32326 34.0338 4.64521 34.0338 4.64521C30.5138 6.79153 36.8669 11.932 36.8669 11.932" stroke="#756457" stroke-width="2" stroke-linecap="round" stroke-linejoin="round"/>
<path d="M44.1964 15.7207C44.1964 15.7207 59.3494 28.5021 52.5992 39.1586C52.5992 39.1586 48.3924 45.4151 40.1398 45.4151C31.8765 45.4151 27.6804 39.1586 27.6804 39.1586C20.941 28.5021 36.0833 15.7207 36.0833 15.7207" stroke="#756457" stroke-width="2" stroke-linecap="round" stroke-linejoin="round"/>
<path d="M35.2951 33.1447L34.3833 33.1389C34.3831 33.1389 34.3829 33.1389 34.3827 33.1389L34.3823 33.1389L34.3833 32.9889L35.2951 33.1447ZM35.2951 33.1447C35.3359 33.2801 35.3809 33.4129 35.4301 33.5432L35.43 33.5432L35.431 33.5457C35.7301 34.2972 36.1358 34.9435 36.6489 35.4823C37.1613 36.0203 37.7526 36.4333 38.4222 36.7201L38.423 36.7204C39.1033 37.0069 39.8224 37.15 40.579 37.15C40.9373 37.15 41.2901 37.1097 41.6374 37.0291C41.9822 36.9491 42.3109 36.8404 42.6234 36.7027L42.6234 36.7028L42.6257 36.7017C42.9433 36.5554 43.2251 36.397 43.4703 36.226C43.6784 36.1158 43.8079 35.9399 43.8485 35.7082C43.9011 35.4609 43.8377 35.2284 43.6743 35.0207C43.5533 34.8559 43.3878 34.7568 43.1857 34.7289C42.9998 34.7018 42.8168 34.7371 42.6407 34.8276L42.6285 34.8338L42.6177 34.8422C42.3269 35.0663 42.0108 35.2367 41.6687 35.3539C41.3275 35.4708 40.9646 35.5297 40.579 35.5297C39.8459 35.5297 39.1787 35.3525 38.5741 34.9991C37.9712 34.6357 37.4912 34.1168 37.1344 33.4376C37.0871 33.3459 37.0428 33.252 37.0016 33.1557" fill="#FD5A13" stroke="#FD5A13" stroke-width="0.3"/>
<path d="M8.62317 48.4925L5.35965 50.3082C4.77957 50.631 4.57095 51.3628 4.89369 51.9429L13.0435 66.5912C13.3662 67.1713 14.0981 67.3799 14.6781 67.0571L17.9417 65.2414C18.5217 64.9187 18.7304 64.1868 18.4076 63.6068L10.2578 48.9585C9.93511 48.3784 9.20324 48.1698 8.62317 48.4925Z" stroke="#756457" stroke-width="2" stroke-linecap="round" stroke-linejoin="round"/>
<path d="M8.43885 53.324C9.0434 53.324 9.53348 52.8339 9.53348 52.2294C9.53348 51.6248 9.0434 51.1348 8.43885 51.1348C7.83431 51.1348 7.34424 51.6248 7.34424 52.2294C7.34424 52.8339 7.83431 53.324 8.43885 53.324Z" fill="#756457"/>
<path d="M11.1968 50.6403L19.9216 46.1115C19.9216 46.1115 23.3128 44.255 26.5645 45.414C29.0649 46.3047 33.1429 47.5496 34.9029 48.0754C35.7614 48.333 36.5556 48.8052 37.1136 49.5135C37.8648 50.4686 38.2726 51.7134 36.3302 53.3983" stroke="#756457" stroke-width="2" stroke-linecap="round" stroke-linejoin="round"/>
<path d="M27.4121 51.799L37.5105 53.6019C37.5105 53.6019 38.7447 53.8595 41.6207 52.2283C44.4968 50.5971 51.2041 46.8196 51.2041 46.8196C51.2041 46.8196 55.3143 44.405 57.1387 47.281C58.963 50.1571 54.6167 52.2283 54.6167 52.2283L38.7017 62.0692C38.7017 62.0692 36.3515 64.4194 29.3223 62.0692L21.2629 60.0624C21.2629 60.0624 19.1917 59.1824 17.217 61.4253" stroke="#756457" stroke-width="2" stroke-linecap="round" stroke-linejoin="round"/>
</svg>
