<svg width="71" height="70" viewBox="0 0 71 70" fill="none" xmlns="http://www.w3.org/2000/svg">
<path d="M30.9559 8.44671L33.1271 4.6741C34.1374 2.91139 36.3838 2.30949 38.1465 3.31982L62.7276 17.4644C64.4903 18.4748 65.0922 20.7212 64.0819 22.4839L39.4255 65.3262C38.4152 67.0889 36.1688 67.6908 34.4061 66.6804L9.82498 52.5466C8.06227 51.5362 7.46037 49.2899 8.4707 47.5271L14.8444 36.4565" stroke="#756457" stroke-width="2" stroke-linecap="round" stroke-linejoin="round"/>
<path d="M35.599 8.44588C36.0504 7.66127 37.05 7.39256 37.8346 7.84399L58.9763 20.0109C59.7609 20.4624 60.0296 21.4619 59.5782 22.2466L41.0805 54.3944C40.6291 55.179 39.6295 55.4477 38.8449 54.9963L17.7032 42.8294C16.9186 42.3779 16.6499 41.3784 17.1013 40.5937L19.4874 36.4449" stroke="#756457" stroke-width="2" stroke-linecap="round" stroke-linejoin="round"/>
<path d="M24.8511 56.5557C26.3054 56.5557 27.4844 55.3767 27.4844 53.9224C27.4844 52.468 26.3054 51.2891 24.8511 51.2891C23.3967 51.2891 22.2178 52.468 22.2178 53.9224C22.2178 55.3767 23.3967 56.5557 24.8511 56.5557Z" stroke="#756457" stroke-width="2" stroke-linecap="round" stroke-linejoin="round"/>
<path d="M37.5338 39.2506L32.7294 36.8645C32.1919 36.5957 31.6008 36.456 30.9989 36.456H10.4376C8.40619 36.456 6.76172 34.7901 6.76172 32.7479V12.2726C6.76172 10.2197 8.40619 8.56445 10.4376 8.56445H35.0617C37.0931 8.56445 38.7376 10.2197 38.7376 12.2726V26.6644C38.7376 27.1373 38.8236 27.6103 38.9848 28.0509L41.7149 35.4134C42.6822 38.0145 39.9951 40.4758 37.5231 39.2398L37.5338 39.2506Z" stroke="#756457" stroke-width="2" stroke-linecap="round" stroke-linejoin="round"/>
<path d="M19.2727 20.1831C20.9585 20.1831 22.3252 18.8165 22.3252 17.1306C22.3252 15.4448 20.9585 14.0781 19.2727 14.0781C17.5869 14.0781 16.2202 15.4448 16.2202 17.1306C16.2202 18.8165 17.5869 20.1831 19.2727 20.1831Z" stroke="#FD5A13" stroke-width="2" stroke-linecap="round" stroke-linejoin="round"/>
<path d="M31.6436 19.1836V25.9227" stroke="#FD5A13" stroke-width="2" stroke-linecap="round" stroke-linejoin="round"/>
<path d="M35.0184 22.5586H28.2793" stroke="#FD5A13" stroke-width="2" stroke-linecap="round" stroke-linejoin="round"/>
<path d="M25.657 29.5774C23.8621 30.8672 21.6587 31.6303 19.2834 31.6303C16.908 31.6303 14.6939 30.8672 12.8989 29.5667C13.2536 26.3637 15.9729 23.8809 19.2726 23.8809C22.5723 23.8809 25.3023 26.3744 25.657 29.5774Z" stroke="#FD5A13" stroke-width="2" stroke-linecap="round" stroke-linejoin="round"/>
</svg>
