<svg width="201" height="120" viewBox="0 0 201 120" fill="none" xmlns="http://www.w3.org/2000/svg">
<g clip-path="url(#clip0_4897_13042)">
<rect width="194" height="94" transform="translate(3.40332 22.6982)" fill="#F5F5F5"/>
<path d="M110.238 70.5908H45.049C44.5419 70.5908 44.1309 70.992 44.1309 71.4869V75.0711C44.1309 75.566 44.5419 75.9672 45.049 75.9672H110.238C110.745 75.9672 111.156 75.566 111.156 75.0711V71.4869C111.156 70.992 110.745 70.5908 110.238 70.5908Z" fill="#CECBCA"/>
<path d="M83.0198 79.5508H45.049C44.5419 79.5508 44.1309 79.952 44.1309 80.4468V84.0311C44.1309 84.5259 44.5419 84.9271 45.049 84.9271H83.0198C83.5268 84.9271 83.9379 84.5259 83.9379 84.0311V80.4468C83.9379 79.952 83.5268 79.5508 83.0198 79.5508Z" fill="#CECBCA"/>
<rect x="17.249" y="71.666" width="20.7885" height="20.7885" rx="1.07527" fill="#CECBCA"/>
<path d="M45.0093 57.6758C44.2261 57.6758 41.8418 57.6758 41.2496 55.35C41.038 55.7257 40.7728 56.07 40.4618 56.3724C40.0477 56.7858 39.5537 57.1145 39.0087 57.3394C38.4666 57.5626 37.8842 57.677 37.2961 57.6758H37.244C36.6458 57.6789 36.0529 57.5655 35.4998 57.3422C34.9468 57.1189 34.4446 56.7902 34.0226 56.3751C33.8056 56.1626 33.6101 55.9301 33.4386 55.6809C33.3484 56.0323 33.1738 56.3574 32.9293 56.6294C32.6849 56.9014 32.3776 57.1123 32.0331 57.2446C31.3031 57.5444 30.517 57.6912 29.7256 57.6758C29.0944 57.6928 28.4648 57.6045 27.864 57.4146C27.4798 57.2927 27.127 57.0912 26.8297 56.8236C26.5323 56.5561 26.2976 56.2289 26.1413 55.8643V57.3036C26.1413 57.3423 26.1256 57.3794 26.0977 57.4067C26.0698 57.4341 26.0319 57.4494 25.9924 57.4494H24.4077C24.3682 57.4494 24.3303 57.4341 24.3024 57.4067C24.2744 57.3794 24.2587 57.3423 24.2587 57.3036V56.876C24.2587 56.8313 24.2395 56.8036 24.2076 56.8036C24.1876 56.805 24.1686 56.8129 24.1536 56.8259C23.4791 57.3697 22.634 57.6697 21.7602 57.6758C21.1651 57.6812 20.5749 57.5708 20.0238 57.351C19.4786 57.1221 18.9848 56.7902 18.5708 56.3742C18.1462 55.9628 17.8095 55.473 17.5801 54.9331C17.356 54.3858 17.2436 53.8008 17.2493 53.2111C17.2424 52.5829 17.3694 51.9602 17.6221 51.3827C17.884 50.813 18.2654 50.3037 18.7417 49.8879C19.1544 49.5181 19.6318 49.2239 20.1509 49.0193C20.6614 48.8258 21.2045 48.7278 21.752 48.7304C22.6226 48.7492 23.4643 49.0405 24.1536 49.5614C24.1685 49.5731 24.1867 49.58 24.2057 49.5811C24.2377 49.5811 24.2578 49.5534 24.2578 49.5095V49.1025C24.2577 49.0833 24.2615 49.0642 24.2689 49.0464C24.2763 49.0286 24.2873 49.0125 24.3011 48.9988C24.315 48.9852 24.3314 48.9744 24.3496 48.967C24.3677 48.9596 24.3871 48.9558 24.4068 48.9558H25.9924C26.0319 48.9558 26.0698 48.9712 26.0977 48.9985C26.1256 49.0259 26.1413 49.0629 26.1413 49.1016V50.6089C26.3497 49.7528 27.1247 48.7304 29.6223 48.7304C30.7729 48.7304 32.7642 49.0479 33.1727 51.1769C33.6956 50.2002 34.5582 49.4387 35.6045 49.0301C36.1134 48.8328 36.6556 48.7312 37.2029 48.7304H37.2404C38.3685 48.7318 39.4558 49.1437 40.2909 49.8861C40.7311 50.2719 41.091 50.7372 41.351 51.2566C41.351 51.1868 41.351 51.1125 41.3565 51.0419C41.3699 50.6495 41.4929 50.2683 41.7122 49.9396C41.9315 49.6109 42.2386 49.3474 42.6003 49.1777C43.3219 48.8531 44.1116 48.6998 44.9051 48.7304C46.0794 48.7304 48.1037 49.0596 48.4692 51.2637C48.4741 51.2825 48.4747 51.3021 48.4709 51.3211C48.4671 51.3402 48.459 51.3581 48.4473 51.3737C48.4304 51.3888 48.4104 51.4002 48.3887 51.4072C48.3669 51.4141 48.3439 51.4164 48.3212 51.414L46.6351 51.4006C46.5437 51.4006 46.4934 51.3496 46.4742 51.2458C46.4127 50.9172 46.2347 50.6205 45.9715 50.4077C45.7084 50.195 45.377 50.08 45.0358 50.0829C44.9599 50.0776 44.8859 50.0749 44.8137 50.0749C43.9912 50.0749 43.4776 50.4327 43.4776 51.0177C43.4776 51.8228 44.3056 52.0518 45.5695 52.3121C46.8626 52.5653 48.6017 53.1074 48.7744 54.8839C48.8126 55.1979 48.7815 55.5163 48.6835 55.8177C48.5854 56.119 48.4226 56.3963 48.206 56.6309C47.7701 57.0032 47.2632 57.2872 46.7145 57.4666C46.1658 57.6459 45.5862 57.717 45.0093 57.6758ZM41.7357 52.5196C41.7688 52.7484 41.7855 52.9792 41.786 53.2102C41.7892 53.7139 41.7077 54.2147 41.5447 54.6925L43.0536 54.7131C43.1395 54.7131 43.187 54.7631 43.2034 54.8624C43.2728 55.2938 43.5134 55.6809 43.8727 55.9397C44.232 56.1985 44.6812 56.308 45.1226 56.2445H45.1719C46.1059 56.2445 46.6862 55.7802 46.6862 55.0351C46.6862 54.1701 45.4324 53.9232 44.4244 53.7246C44.2297 53.6861 44.0469 53.6503 43.8815 53.6119C43.0576 53.5053 42.2981 53.1187 41.7357 52.5196ZM26.1413 51.8756V54.6916L27.7689 54.7131C27.8548 54.7131 27.9024 54.7622 27.9188 54.8624C27.9891 55.2932 28.2299 55.6795 28.5891 55.9377C28.9484 56.1959 29.397 56.3052 29.838 56.2418H29.8846C30.8204 56.2418 31.4016 55.7784 31.4016 55.0324C31.4016 54.1683 30.1496 53.9214 29.1434 53.7228C28.9478 53.6843 28.7632 53.6477 28.5951 53.6092C27.1457 53.2925 26.3652 52.7388 26.1413 51.8756ZM21.7392 50.4112C21.3816 50.4213 21.0299 50.5031 20.706 50.6516C20.382 50.8002 20.0927 51.0123 19.8559 51.2748C19.6192 51.5374 19.4401 51.8447 19.3297 52.1778C19.2193 52.5108 19.1799 52.8626 19.2141 53.2111C19.1827 53.9791 19.4573 54.729 19.98 55.3026C20.2045 55.5352 20.4755 55.7202 20.776 55.8462C21.0766 55.9723 21.4003 56.0366 21.7273 56.0352C22.2568 56.0365 22.7743 55.8805 23.2114 55.5879C23.5647 55.3025 23.841 54.9367 24.0163 54.5225C24.1915 54.1083 24.2604 53.6583 24.2167 53.212C24.224 52.3694 23.9818 50.4112 21.7392 50.4112ZM37.2413 50.4112C36.9045 50.4051 36.5702 50.469 36.2605 50.5987C35.9508 50.7284 35.6727 50.9209 35.4446 51.1635C34.9533 51.7349 34.6969 52.4648 34.7254 53.2111C34.6927 53.9651 34.9459 54.7042 35.4364 55.2864C35.6707 55.5233 35.9513 55.7116 36.2614 55.8402C36.5715 55.9688 36.9049 56.0351 37.2418 56.0351C37.5786 56.0351 37.912 55.9688 38.2221 55.8402C38.5322 55.7116 38.8128 55.5233 39.0471 55.2864C39.5376 54.7042 39.7908 53.9651 39.7581 53.2111C39.7869 52.4648 39.5305 51.7347 39.0389 51.1635C38.8107 50.9207 38.5325 50.728 38.2226 50.5982C37.9128 50.4683 37.5783 50.4043 37.2413 50.4103V50.4112ZM29.5327 50.0722C28.7102 50.0722 28.1976 50.43 28.1976 51.0141C28.1976 51.8192 29.0255 52.0491 30.2885 52.3094C31.1709 52.4324 32.0041 52.7825 32.703 53.3238V53.2854C32.703 53.2603 32.703 53.2353 32.703 53.2093C32.6955 52.5934 32.8168 51.9824 33.0594 51.414H33.0375L31.3541 51.3997C31.2627 51.3997 31.2124 51.3505 31.1942 51.2458C31.1326 50.9172 30.9546 50.6205 30.6915 50.4077C30.4284 50.195 30.097 50.08 29.7557 50.0829C29.678 50.0767 29.604 50.0722 29.5327 50.0722Z" fill="#CECBCA"/>
<path d="M181.896 83.8525H131.455C130.736 83.8525 130.152 84.3019 130.152 84.8561V91.4511C130.152 92.0054 130.736 92.4547 131.455 92.4547H181.896C182.616 92.4547 183.199 92.0054 183.199 91.4511V84.8561C183.199 84.3019 182.616 83.8525 181.896 83.8525Z" fill="#CECBCA"/>
<path d="M160.542 65.2148H131.073C130.565 65.2148 130.152 65.616 130.152 66.1109V69.6951C130.152 70.19 130.565 70.5912 131.073 70.5912H160.542C161.05 70.5912 161.462 70.19 161.462 69.6951V66.1109C161.462 65.616 161.05 65.2148 160.542 65.2148Z" fill="#CECBCA"/>
<path d="M182.317 65.2148H169.425C168.916 65.2148 168.504 65.616 168.504 66.1109V69.6951C168.504 70.19 168.916 70.5912 169.425 70.5912H182.317C182.826 70.5912 183.238 70.19 183.238 69.6951V66.1109C183.238 65.616 182.826 65.2148 182.317 65.2148Z" fill="#CECBCA"/>
<path d="M150.412 73.458H131.073C130.565 73.458 130.152 73.8592 130.152 74.3541V77.9383C130.152 78.4332 130.565 78.8344 131.073 78.8344H150.412C150.92 78.8344 151.333 78.4332 151.333 77.9383V74.3541C151.333 73.8592 150.92 73.458 150.412 73.458Z" fill="#CECBCA"/>
<path d="M182.317 73.458H169.425C168.916 73.458 168.504 73.8592 168.504 74.3541V77.9383C168.504 78.4332 168.916 78.8344 169.425 78.8344H182.317C182.826 78.8344 183.238 78.4332 183.238 77.9383V74.3541C183.238 73.8592 182.826 73.458 182.317 73.458Z" fill="#CECBCA"/>
<mask id="path-12-outside-1_4897_13042" maskUnits="userSpaceOnUse" x="3.40332" y="22.6982" width="194" height="17" fill="black">
<rect fill="white" x="3.40332" y="22.6982" width="194" height="17"/>
<path d="M3.40332 22.6982H197.403V38.6982H3.40332V22.6982Z"/>
</mask>
<path d="M3.40332 22.6982H197.403V38.6982H3.40332V22.6982Z" fill="white"/>
<path d="M197.403 37.6982H3.40332V39.6982H197.403V37.6982Z" fill="#E6E6E6" mask="url(#path-12-outside-1_4897_13042)"/>
<path d="M6.27051 30.8666C6.27051 28.695 9.47593 25.4902 11.6473 25.4902C13.8187 25.4902 17.0232 28.6954 17.0232 30.8666C17.0232 33.0377 13.8173 36.2429 11.6459 36.2429C9.47457 36.2429 6.27051 33.0377 6.27051 30.8666ZM10.6889 27.6892L8.43056 30.0494C8.19557 30.2938 8.06715 30.6199 8.073 30.9571C8.07884 31.2944 8.21849 31.6159 8.46181 31.8522L10.7999 34.0924C10.921 34.2073 11.0639 34.2973 11.2204 34.3572C11.3769 34.4171 11.5439 34.4457 11.7117 34.4413C11.8794 34.4368 12.0447 34.3995 12.1977 34.3315C12.3508 34.2635 12.4887 34.166 12.6035 34.0449L14.8627 31.6847C15.0977 31.44 15.226 31.1138 15.2201 30.7764C15.2142 30.439 15.0744 30.1174 14.831 29.8809L13.3979 28.5126L12.0495 29.8603C12.098 29.9051 12.7493 30.5252 12.7493 30.5252C12.8336 30.6071 12.882 30.7184 12.884 30.8353C12.886 30.9521 12.8416 31.065 12.7602 31.1497L11.9775 31.9669C11.9378 32.009 11.89 32.0427 11.837 32.0663C11.784 32.0899 11.7267 32.1029 11.6686 32.1044C11.6105 32.1059 11.5526 32.0959 11.4984 32.0751C11.4442 32.0543 11.3948 32.023 11.3529 31.9831L10.543 31.208C10.4587 31.1262 10.4103 31.015 10.4082 30.8982C10.406 30.7815 10.4504 30.6686 10.5317 30.5839L12.9776 28.1072L12.4929 27.6408C12.2588 27.4159 11.9451 27.2904 11.6188 27.2909C11.4445 27.291 11.2721 27.3264 11.1122 27.3949C10.9523 27.4634 10.8082 27.5636 10.6889 27.6892Z" fill="#FD5A13"/>
<rect x="68.6221" y="25.1318" width="63.9212" height="11.4695" rx="5.73477" fill="#FD5A13"/>
<path d="M77.9409 30.8665C77.9409 28.8869 76.3362 27.2822 74.3567 27.2822C72.3772 27.2822 70.7725 28.8869 70.7725 30.8665C70.7725 32.846 72.3772 34.4507 74.3567 34.4507C76.3362 34.4507 77.9409 32.846 77.9409 30.8665Z" fill="white"/>
<path d="M72.4368 30.8493C72.4106 30.8772 72.3907 30.9103 72.3785 30.9466C72.3663 30.9828 72.3622 31.0212 72.3663 31.0592C72.3664 31.1373 72.3963 31.2124 72.4499 31.2691L73.6192 32.477C73.6461 32.503 73.678 32.5233 73.713 32.5366C73.748 32.5499 73.7853 32.5559 73.8227 32.5542C73.8601 32.5559 73.8974 32.5499 73.9324 32.5366C73.9674 32.5233 73.9993 32.503 74.0262 32.477L74.2146 32.3014L76.5833 29.9915C76.6095 29.9657 76.63 29.9345 76.6433 29.9002C76.6566 29.8659 76.6625 29.8292 76.6606 29.7924C76.6622 29.755 76.6562 29.7177 76.6429 29.6827C76.6297 29.6477 76.6094 29.6158 76.5833 29.5889L76.3563 29.3499C76.3315 29.3242 76.3015 29.3039 76.2682 29.2906C76.235 29.2773 76.1993 29.2712 76.1636 29.2727C76.1272 29.2714 76.0909 29.2776 76.057 29.2909C76.0231 29.3042 75.9923 29.3243 75.9664 29.3499L74.0389 31.3014C74.0124 31.3273 73.9808 31.3475 73.9461 31.3608C73.9115 31.3741 73.8745 31.3801 73.8374 31.3786C73.8016 31.3807 73.7657 31.3748 73.7324 31.3615C73.6991 31.3481 73.6691 31.3276 73.6447 31.3014L73.0023 30.6458C72.9496 30.5968 72.8795 30.5705 72.8075 30.573C72.7355 30.5705 72.6655 30.5968 72.6128 30.6458L72.4368 30.8493Z" fill="#FD5A13"/>
<path d="M81.6512 33.4358C81.2817 33.4358 80.9536 33.3737 80.6669 33.2494C80.3818 33.1251 80.1581 32.9552 79.9957 32.7398C79.8349 32.5227 79.7554 32.2766 79.7571 32.0015C79.7554 31.7877 79.8018 31.5914 79.8963 31.4124C79.9907 31.2334 80.1183 31.0843 80.2791 30.9649C80.4415 30.844 80.6221 30.7669 80.821 30.7338V30.699C80.5591 30.641 80.347 30.5075 80.1846 30.2987C80.0239 30.0883 79.9443 29.8455 79.946 29.5704C79.9443 29.3086 80.0172 29.0749 80.1647 28.8694C80.3122 28.6639 80.5144 28.5023 80.7713 28.3847C81.0281 28.2654 81.3215 28.2057 81.6512 28.2057C81.9777 28.2057 82.2685 28.2654 82.5237 28.3847C82.7806 28.5023 82.9828 28.6639 83.1303 28.8694C83.2794 29.0749 83.354 29.3086 83.354 29.5704C83.354 29.8455 83.272 30.0883 83.1079 30.2987C82.9455 30.5075 82.7359 30.641 82.479 30.699V30.7338C82.6779 30.7669 82.8568 30.844 83.0159 30.9649C83.1767 31.0843 83.3043 31.2334 83.3987 31.4124C83.4949 31.5914 83.5429 31.7877 83.5429 32.0015C83.5429 32.2766 83.4617 32.5227 83.2993 32.7398C83.1369 32.9552 82.9132 33.1251 82.6282 33.2494C82.3448 33.3737 82.0191 33.4358 81.6512 33.4358ZM81.6512 32.7249C81.8418 32.7249 82.0075 32.6926 82.1484 32.6279C82.2893 32.5616 82.3986 32.4688 82.4765 32.3495C82.5544 32.2302 82.5942 32.0927 82.5958 31.9369C82.5942 31.7745 82.5519 31.6311 82.4691 31.5068C82.3879 31.3809 82.276 31.2823 82.1335 31.211C81.9926 31.1398 81.8319 31.1041 81.6512 31.1041C81.4689 31.1041 81.3065 31.1398 81.164 31.211C81.0215 31.2823 80.9088 31.3809 80.8259 31.5068C80.7447 31.6311 80.705 31.7745 80.7066 31.9369C80.705 32.0927 80.7431 32.2302 80.821 32.3495C80.8989 32.4672 81.0082 32.5592 81.1491 32.6254C81.2916 32.6917 81.459 32.7249 81.6512 32.7249ZM81.6512 30.4056C81.807 30.4056 81.9446 30.3741 82.0639 30.3112C82.1849 30.2482 82.2801 30.1604 82.3497 30.0477C82.4193 29.935 82.455 29.8049 82.4566 29.6574C82.455 29.5116 82.4202 29.384 82.3522 29.2746C82.2843 29.1636 82.1898 29.0782 82.0688 29.0186C81.9479 28.9572 81.8087 28.9266 81.6512 28.9266C81.4905 28.9266 81.3488 28.9572 81.2262 29.0186C81.1052 29.0782 81.0107 29.1636 80.9428 29.2746C80.8765 29.384 80.8442 29.5116 80.8458 29.6574C80.8442 29.8049 80.8773 29.935 80.9453 30.0477C81.0149 30.1587 81.1102 30.2465 81.2311 30.3112C81.3538 30.3741 81.4938 30.4056 81.6512 30.4056ZM87.0821 32.4117V32.1432C87.0821 31.946 87.1235 31.7645 87.2064 31.5988C87.2909 31.4331 87.4135 31.2997 87.5743 31.1986C87.735 31.0975 87.9297 31.047 88.1584 31.047C88.3937 31.047 88.591 31.0975 88.75 31.1986C88.9091 31.298 89.0293 31.4306 89.1105 31.5963C89.1933 31.762 89.2348 31.9443 89.2348 32.1432V32.4117C89.2348 32.6089 89.1933 32.7903 89.1105 32.9561C89.0276 33.1218 88.9058 33.2552 88.7451 33.3563C88.586 33.4574 88.3904 33.5079 88.1584 33.5079C87.9264 33.5079 87.73 33.4574 87.5693 33.3563C87.4085 33.2552 87.2867 33.1218 87.2039 32.9561C87.1227 32.7903 87.0821 32.6089 87.0821 32.4117ZM87.7309 32.1432V32.4117C87.7309 32.5426 87.7624 32.6627 87.8253 32.7721C87.8883 32.8815 87.9993 32.9362 88.1584 32.9362C88.3192 32.9362 88.4294 32.8823 88.489 32.7746C88.5504 32.6652 88.581 32.5442 88.581 32.4117V32.1432C88.581 32.0106 88.552 31.8896 88.494 31.7803C88.436 31.6692 88.3241 31.6137 88.1584 31.6137C88.0026 31.6137 87.8924 31.6692 87.8278 31.7803C87.7632 31.8896 87.7309 32.0106 87.7309 32.1432ZM84.4944 29.4983V29.2298C84.4944 29.031 84.5366 28.8487 84.6211 28.683C84.7057 28.5173 84.8283 28.3847 84.989 28.2852C85.1498 28.1842 85.3445 28.1336 85.5732 28.1336C85.8069 28.1336 86.0032 28.1842 86.1623 28.2852C86.3231 28.3847 86.4441 28.5173 86.5253 28.683C86.6065 28.8487 86.6471 29.031 86.6471 29.2298V29.4983C86.6471 29.6972 86.6056 29.8795 86.5228 30.0452C86.4416 30.2093 86.3206 30.341 86.1598 30.4404C85.9991 30.5399 85.8035 30.5896 85.5732 30.5896C85.3395 30.5896 85.1423 30.5399 84.9816 30.4404C84.8225 30.341 84.7015 30.2084 84.6187 30.0427C84.5358 29.877 84.4944 29.6955 84.4944 29.4983ZM85.1481 29.2298V29.4983C85.1481 29.6309 85.1788 29.7519 85.2401 29.8612C85.3031 29.969 85.4141 30.0228 85.5732 30.0228C85.7323 30.0228 85.8417 29.969 85.9013 29.8612C85.9626 29.7519 85.9933 29.6309 85.9933 29.4983V29.2298C85.9933 29.0973 85.9643 28.9763 85.9063 28.8669C85.8483 28.7559 85.7373 28.7004 85.5732 28.7004C85.4158 28.7004 85.3056 28.7559 85.2426 28.8669C85.1796 28.978 85.1481 29.0989 85.1481 29.2298ZM84.7777 33.3662L88.2777 28.2753H88.8992L85.3992 33.3662H84.7777ZM96.41 29.993H95.4803C95.4538 29.8405 95.4049 29.7055 95.3337 29.5878C95.2624 29.4685 95.1738 29.3674 95.0677 29.2845C94.9616 29.2017 94.8407 29.1395 94.7048 29.0981C94.5705 29.055 94.4255 29.0335 94.2698 29.0335C93.993 29.0335 93.7477 29.1031 93.534 29.2423C93.3202 29.3798 93.1528 29.582 93.0318 29.8488C92.9109 30.114 92.8504 30.4379 92.8504 30.8208C92.8504 31.2102 92.9109 31.5383 93.0318 31.8051C93.1545 32.0703 93.3218 32.2708 93.534 32.4067C93.7477 32.5409 93.9922 32.608 94.2673 32.608C94.4197 32.608 94.5622 32.5882 94.6948 32.5484C94.8291 32.507 94.9492 32.4465 95.0553 32.3669C95.163 32.2874 95.2533 32.1896 95.3262 32.0736C95.4008 31.9576 95.4522 31.825 95.4803 31.6759L96.41 31.6808C96.3752 31.9228 96.2998 32.1498 96.1838 32.3619C96.0695 32.5741 95.9195 32.7613 95.7339 32.9237C95.5483 33.0845 95.3312 33.2104 95.0826 33.3016C94.834 33.3911 94.5581 33.4358 94.2548 33.4358C93.8074 33.4358 93.408 33.3322 93.0567 33.1251C92.7054 32.9179 92.4286 32.6188 92.2264 32.2277C92.0243 31.8366 91.9232 31.3676 91.9232 30.8208C91.9232 30.2722 92.0251 29.8032 92.2289 29.4138C92.4328 29.0227 92.7103 28.7236 93.0617 28.5164C93.413 28.3093 93.8107 28.2057 94.2548 28.2057C94.5382 28.2057 94.8017 28.2455 95.0453 28.325C95.2889 28.4046 95.506 28.5214 95.6966 28.6755C95.8872 28.828 96.0438 29.0152 96.1664 29.2373C96.2907 29.4577 96.3719 29.7096 96.41 29.993ZM98.3135 33.4433C98.0716 33.4433 97.8536 33.4002 97.6598 33.314C97.4675 33.2262 97.3151 33.0969 97.2024 32.9262C97.0913 32.7555 97.0358 32.5451 97.0358 32.2948C97.0358 32.0794 97.0756 31.9012 97.1551 31.7604C97.2347 31.6195 97.3432 31.5068 97.4808 31.4223C97.6183 31.3378 97.7733 31.274 97.9456 31.2309C98.1196 31.1862 98.2994 31.1539 98.485 31.134C98.7088 31.1108 98.8902 31.0901 99.0294 31.0718C99.1686 31.0519 99.2697 31.0221 99.3327 30.9823C99.3973 30.9409 99.4296 30.8771 99.4296 30.7909V30.776C99.4296 30.5887 99.3741 30.4437 99.2631 30.341C99.1521 30.2383 98.9921 30.1869 98.7833 30.1869C98.5629 30.1869 98.3881 30.2349 98.2588 30.3311C98.1312 30.4272 98.0451 30.5407 98.0003 30.6716L97.1601 30.5523C97.2264 30.3203 97.3358 30.1264 97.4882 29.9706C97.6407 29.8132 97.8271 29.6955 98.0475 29.6176C98.2679 29.5381 98.5116 29.4983 98.7784 29.4983C98.9623 29.4983 99.1454 29.5199 99.3277 29.5629C99.51 29.606 99.6766 29.6773 99.8274 29.7767C99.9782 29.8745 100.099 30.0079 100.19 30.1769C100.283 30.346 100.33 30.5573 100.33 30.8108V33.3662H99.4644V32.8417H99.4346C99.3799 32.9478 99.3029 33.0472 99.2034 33.14C99.1057 33.2311 98.9822 33.3049 98.8331 33.3612C98.6856 33.4159 98.5124 33.4433 98.3135 33.4433ZM98.5472 32.782C98.7278 32.782 98.8844 32.7464 99.017 32.6752C99.1496 32.6022 99.2515 32.5061 99.3228 32.3868C99.3957 32.2675 99.4321 32.1374 99.4321 31.9965V31.5466C99.404 31.5698 99.3559 31.5914 99.288 31.6112C99.2217 31.6311 99.1471 31.6485 99.0642 31.6634C98.9814 31.6784 98.8993 31.6916 98.8181 31.7032C98.7369 31.7148 98.6665 31.7248 98.6068 31.733C98.4726 31.7513 98.3525 31.7811 98.2464 31.8225C98.1403 31.864 98.0567 31.922 97.9953 31.9965C97.934 32.0695 97.9034 32.1639 97.9034 32.2799C97.9034 32.4456 97.9639 32.5708 98.0848 32.6553C98.2058 32.7398 98.3599 32.782 98.5472 32.782ZM104.252 30.5573L103.432 30.6468C103.409 30.5639 103.368 30.486 103.31 30.4131C103.254 30.3402 103.177 30.2813 103.081 30.2366C102.985 30.1918 102.867 30.1695 102.728 30.1695C102.541 30.1695 102.384 30.2101 102.256 30.2913C102.13 30.3725 102.068 30.4777 102.07 30.607C102.068 30.718 102.109 30.8083 102.191 30.8779C102.276 30.9475 102.415 31.0047 102.609 31.0494L103.26 31.1887C103.622 31.2665 103.89 31.39 104.066 31.559C104.243 31.7281 104.332 31.9493 104.334 32.2227C104.332 32.463 104.262 32.6752 104.123 32.8591C103.985 33.0414 103.794 33.1839 103.549 33.2867C103.303 33.3894 103.022 33.4408 102.703 33.4408C102.236 33.4408 101.86 33.343 101.575 33.1475C101.29 32.9503 101.12 32.676 101.065 32.3247L101.943 32.2401C101.983 32.4125 102.067 32.5426 102.196 32.6304C102.326 32.7182 102.494 32.7622 102.701 32.7622C102.915 32.7622 103.086 32.7182 103.216 32.6304C103.346 32.5426 103.412 32.434 103.412 32.3048C103.412 32.1954 103.37 32.1051 103.285 32.0338C103.202 31.9626 103.073 31.9079 102.897 31.8698L102.246 31.733C101.88 31.6568 101.609 31.5284 101.433 31.3477C101.258 31.1655 101.171 30.9351 101.172 30.6567C101.171 30.4214 101.234 30.2175 101.364 30.0452C101.495 29.8712 101.676 29.7369 101.908 29.6425C102.142 29.5464 102.411 29.4983 102.716 29.4983C103.163 29.4983 103.515 29.5936 103.772 29.7842C104.031 29.9748 104.191 30.2325 104.252 30.5573ZM105.976 31.129V33.3662H105.076V28.2753H105.956V30.1968H106.001C106.09 29.9814 106.229 29.8115 106.416 29.6872C106.605 29.5613 106.845 29.4983 107.137 29.4983C107.402 29.4983 107.633 29.5538 107.83 29.6649C108.028 29.7759 108.18 29.9383 108.288 30.1521C108.397 30.3659 108.452 30.6269 108.452 30.9351V33.3662H107.552V31.0743C107.552 30.8174 107.486 30.6177 107.353 30.4752C107.222 30.3311 107.038 30.259 106.801 30.259C106.642 30.259 106.5 30.2938 106.374 30.3634C106.249 30.4313 106.152 30.5299 106.08 30.6592C106.011 30.7884 105.976 30.945 105.976 31.129ZM109.409 33.3662V28.2753H110.309V30.1794H110.346C110.392 30.0866 110.458 29.988 110.542 29.8836C110.627 29.7776 110.741 29.6872 110.885 29.6127C111.03 29.5364 111.214 29.4983 111.437 29.4983C111.732 29.4983 111.998 29.5737 112.235 29.7245C112.474 29.8737 112.663 30.0949 112.802 30.3882C112.943 30.6799 113.013 31.0378 113.013 31.4621C113.013 31.8814 112.944 32.2377 112.807 32.531C112.669 32.8243 112.482 33.048 112.245 33.2021C112.008 33.3563 111.74 33.4333 111.44 33.4333C111.221 33.4333 111.04 33.3969 110.895 33.324C110.751 33.251 110.635 33.1632 110.547 33.0605C110.461 32.9561 110.394 32.8575 110.346 32.7646H110.294V33.3662H109.409ZM110.291 31.4571C110.291 31.704 110.326 31.9203 110.396 32.1059C110.467 32.2915 110.569 32.4365 110.701 32.5409C110.836 32.6437 110.998 32.695 111.189 32.695C111.388 32.695 111.554 32.642 111.688 32.536C111.823 32.4282 111.924 32.2816 111.992 32.096C112.061 31.9087 112.096 31.6958 112.096 31.4571C112.096 31.2201 112.062 31.0097 111.994 30.8257C111.926 30.6418 111.825 30.4976 111.691 30.3932C111.557 30.2888 111.389 30.2366 111.189 30.2366C110.996 30.2366 110.833 30.2871 110.699 30.3882C110.565 30.4893 110.463 30.631 110.393 30.8133C110.325 30.9956 110.291 31.2102 110.291 31.4571ZM114.877 33.4433C114.635 33.4433 114.417 33.4002 114.223 33.314C114.031 33.2262 113.879 33.0969 113.766 32.9262C113.655 32.7555 113.599 32.5451 113.599 32.2948C113.599 32.0794 113.639 31.9012 113.719 31.7604C113.798 31.6195 113.907 31.5068 114.044 31.4223C114.182 31.3378 114.337 31.274 114.509 31.2309C114.683 31.1862 114.863 31.1539 115.049 31.134C115.272 31.1108 115.454 31.0901 115.593 31.0718C115.732 31.0519 115.833 31.0221 115.896 30.9823C115.961 30.9409 115.993 30.8771 115.993 30.7909V30.776C115.993 30.5887 115.938 30.4437 115.827 30.341C115.716 30.2383 115.556 30.1869 115.347 30.1869C115.126 30.1869 114.952 30.2349 114.822 30.3311C114.695 30.4272 114.609 30.5407 114.564 30.6716L113.724 30.5523C113.79 30.3203 113.899 30.1264 114.052 29.9706C114.204 29.8132 114.391 29.6955 114.611 29.6176C114.831 29.5381 115.075 29.4983 115.342 29.4983C115.526 29.4983 115.709 29.5199 115.891 29.5629C116.073 29.606 116.24 29.6773 116.391 29.7767C116.542 29.8745 116.663 30.0079 116.754 30.1769C116.847 30.346 116.893 30.5573 116.893 30.8108V33.3662H116.028V32.8417H115.998C115.943 32.9478 115.866 33.0472 115.767 33.14C115.669 33.2311 115.546 33.3049 115.397 33.3612C115.249 33.4159 115.076 33.4433 114.877 33.4433ZM115.111 32.782C115.291 32.782 115.448 32.7464 115.58 32.6752C115.713 32.6022 115.815 32.5061 115.886 32.3868C115.959 32.2675 115.996 32.1374 115.996 31.9965V31.5466C115.967 31.5698 115.919 31.5914 115.851 31.6112C115.785 31.6311 115.711 31.6485 115.628 31.6634C115.545 31.6784 115.463 31.6916 115.382 31.7032C115.3 31.7148 115.23 31.7248 115.17 31.733C115.036 31.7513 114.916 31.7811 114.81 31.8225C114.704 31.864 114.62 31.922 114.559 31.9965C114.497 32.0695 114.467 32.1639 114.467 32.2799C114.467 32.4456 114.527 32.5708 114.648 32.6553C114.769 32.7398 114.923 32.782 115.111 32.782ZM119.463 33.4408C119.082 33.4408 118.755 33.3571 118.481 33.1897C118.21 33.0223 118 32.7912 117.852 32.4962C117.707 32.1995 117.634 31.8582 117.634 31.472C117.634 31.0843 117.708 30.742 117.857 30.4454C118.007 30.1471 118.217 29.9151 118.489 29.7494C118.762 29.582 119.085 29.4983 119.458 29.4983C119.768 29.4983 120.042 29.5555 120.281 29.6698C120.521 29.7825 120.713 29.9424 120.855 30.1496C120.998 30.3551 121.079 30.5954 121.099 30.8705H120.239C120.204 30.6865 120.121 30.5332 119.99 30.4106C119.861 30.2863 119.688 30.2242 119.471 30.2242C119.287 30.2242 119.125 30.2739 118.986 30.3733C118.847 30.4711 118.738 30.6119 118.66 30.7959C118.584 30.9798 118.546 31.2003 118.546 31.4571C118.546 31.7173 118.584 31.941 118.66 32.1283C118.737 32.3139 118.843 32.4572 118.981 32.5583C119.12 32.6578 119.283 32.7075 119.471 32.7075C119.603 32.7075 119.722 32.6826 119.826 32.6329C119.932 32.5815 120.021 32.5078 120.092 32.4117C120.163 32.3155 120.212 32.1987 120.239 32.0612H121.099C121.077 32.3313 120.998 32.5708 120.86 32.7796C120.723 32.9867 120.535 33.1491 120.299 33.2668C120.062 33.3828 119.783 33.4408 119.463 33.4408ZM122.658 32.1681L122.656 31.0818H122.8L124.172 29.548H125.223L123.536 31.4273H123.349L122.658 32.1681ZM121.838 33.3662V28.2753H122.738V33.3662H121.838ZM124.234 33.3662L122.991 31.6286L123.598 30.9948L125.311 33.3662H124.234Z" fill="white"/>
<g clip-path="url(#clip1_4897_13042)">
<path d="M189.587 29.6024C189.494 29.6956 189.494 29.8461 189.587 29.9393L190.514 30.8665L189.587 31.7936C189.494 31.8868 189.494 32.0373 189.587 32.1305C189.68 32.2237 189.831 32.2237 189.924 32.1305L191.021 31.0337C191.114 30.9405 191.114 30.79 191.021 30.6968L189.924 29.6C189.833 29.5092 189.68 29.5092 189.587 29.6024Z" fill="#363636"/>
</g>
<g clip-path="url(#clip2_4897_13042)">
<path d="M178.748 31.1002C178.758 31.0238 178.765 30.9473 178.765 30.866C178.765 30.7848 178.758 30.7083 178.748 30.6319L179.252 30.2376C179.298 30.2018 179.31 30.1373 179.281 30.0847L178.803 29.2579C178.774 29.2054 178.71 29.1862 178.657 29.2054L178.062 29.4443C177.938 29.3487 177.804 29.2699 177.659 29.2101L177.568 28.5769C177.561 28.5196 177.51 28.4766 177.451 28.4766H176.495C176.435 28.4766 176.385 28.5196 176.378 28.5769L176.287 29.2101C176.141 29.2699 176.007 29.3511 175.883 29.4443L175.288 29.2054C175.233 29.1839 175.171 29.2054 175.142 29.2579L174.665 30.0847C174.633 30.1373 174.648 30.2018 174.693 30.2376L175.197 30.6319C175.188 30.7083 175.181 30.7872 175.181 30.866C175.181 30.9449 175.188 31.0238 175.197 31.1002L174.693 31.4945C174.648 31.5303 174.636 31.5948 174.665 31.6474L175.142 32.4742C175.171 32.5267 175.236 32.5459 175.288 32.5267L175.883 32.2878C176.007 32.3834 176.141 32.4622 176.287 32.522L176.378 33.1552C176.385 33.2125 176.435 33.2555 176.495 33.2555H177.451C177.51 33.2555 177.561 33.2125 177.568 33.1552L177.659 32.522C177.804 32.4622 177.938 32.381 178.062 32.2878L178.657 32.5267C178.712 32.5482 178.774 32.5267 178.803 32.4742L179.281 31.6474C179.31 31.5948 179.298 31.5303 179.252 31.4945L178.748 31.1002ZM176.973 31.7024C176.512 31.7024 176.136 31.3272 176.136 30.866C176.136 30.4049 176.512 30.0297 176.973 30.0297C177.434 30.0297 177.809 30.4049 177.809 30.866C177.809 31.3272 177.434 31.7024 176.973 31.7024Z" fill="#363636"/>
</g>
<rect x="185.575" y="25.8486" width="0.358423" height="10.0358" fill="black" fill-opacity="0.16"/>
<path d="M200.403 0.698242H0.40332V22.2036H200.403V0.698242Z" fill="#EBEBEB"/>
<path d="M172.446 7.43359H40.5467C37.7754 7.43359 35.5288 9.68019 35.5288 12.4515C35.5288 15.2228 37.7754 17.4694 40.5467 17.4694H172.446C175.218 17.4694 177.464 15.2228 177.464 12.4515C177.464 9.68019 175.218 7.43359 172.446 7.43359Z" fill="white"/>
<path opacity="0.626" d="M73.8802 11.0176H42.3389C41.7451 11.0176 41.2637 11.499 41.2637 12.0928V12.8097C41.2637 13.4035 41.7451 13.885 42.3389 13.885H73.8802C74.474 13.885 74.9554 13.4035 74.9554 12.8097V12.0928C74.9554 11.499 74.474 11.0176 73.8802 11.0176Z" fill="#D1D1D1"/>
<path d="M200.403 22.2031H0.40332V22.5615H200.403V22.2031Z" fill="#EDEDED"/>
<path d="M190.518 7.43359H183.35C182.558 7.43359 181.916 8.07548 181.916 8.86729V16.0357C181.916 16.8276 182.558 17.4694 183.35 17.4694H190.518C191.31 17.4694 191.952 16.8276 191.952 16.0357V8.86729C191.952 8.07548 191.31 7.43359 190.518 7.43359Z" fill="#FD5A13"/>
<path d="M186.927 16.0356C186.512 16.0167 186.108 15.8926 185.754 15.6751C185.329 15.4347 184.939 15.1356 184.598 14.7865C184.247 14.4407 183.947 14.0474 183.705 13.6181C183.473 13.2729 183.349 12.8664 183.349 12.4503C183.349 12.0343 183.473 11.6278 183.705 11.2826C183.947 10.8544 184.248 10.4619 184.598 10.1163C184.94 9.76727 185.329 9.46751 185.754 9.22561C186.111 9.01043 186.515 8.88726 186.931 8.86719C187.347 8.88506 187.752 9.0084 188.107 9.22561C188.536 9.46574 188.928 9.7655 189.273 10.1159C189.622 10.4617 189.922 10.8542 190.164 11.2822C190.397 11.6282 190.521 12.0364 190.52 12.4537C190.518 12.8711 190.392 13.2783 190.156 13.6227C189.665 14.4787 188.955 15.1888 188.099 15.6801C187.745 15.8962 187.342 16.0186 186.927 16.0356ZM186.919 10.0658C186.838 10.0658 186.758 10.0779 186.681 10.1016C186.536 10.1468 186.405 10.2284 186.301 10.3385L184.799 11.9066C184.695 12.0142 184.621 12.1479 184.586 12.2937C184.548 12.4377 184.548 12.5891 184.586 12.7331C184.625 12.8773 184.704 13.0076 184.814 13.1091L186.369 14.6116C186.478 14.7133 186.612 14.7842 186.758 14.8172C186.903 14.8502 187.055 14.844 187.197 14.7994C187.342 14.7596 187.473 14.681 187.577 14.5722L189.082 12.9951C189.186 12.8882 189.259 12.755 189.293 12.6098C189.33 12.465 189.33 12.3134 189.293 12.1686C189.253 12.0251 189.174 11.8952 189.065 11.793L188.116 10.8848L187.22 11.7769L187.682 12.2202C187.711 12.2461 187.735 12.278 187.751 12.3138C187.766 12.3496 187.774 12.3883 187.773 12.4274C187.774 12.467 187.767 12.5065 187.753 12.5434C187.739 12.5803 187.717 12.614 187.689 12.6425L187.175 13.1801C187.149 13.2095 187.116 13.2331 187.08 13.2493C187.044 13.2655 187.005 13.2741 186.966 13.2744H186.946C186.911 13.2743 186.876 13.2672 186.844 13.2536C186.811 13.2399 186.782 13.2199 186.757 13.1948L186.202 12.6848C186.173 12.6589 186.15 12.627 186.134 12.5912C186.118 12.5554 186.11 12.5167 186.111 12.4776C186.11 12.3978 186.14 12.3207 186.194 12.2625L187.825 10.6174L187.497 10.3009C187.391 10.199 187.26 10.1265 187.118 10.0905C187.053 10.0741 186.986 10.0658 186.919 10.0658Z" fill="white"/>
<path d="M14.1562 12.4514C14.1562 10.8678 12.8724 9.58398 11.2888 9.58398C9.70516 9.58398 8.42139 10.8678 8.42139 12.4514C8.42139 14.035 9.70516 15.3188 11.2888 15.3188C12.8724 15.3188 14.1562 14.035 14.1562 12.4514Z" fill="#BCBCBC"/>
<path d="M22.0414 12.4514C22.0414 10.8678 20.7576 9.58398 19.174 9.58398C17.5904 9.58398 16.3066 10.8678 16.3066 12.4514C16.3066 14.035 17.5904 15.3188 19.174 15.3188C20.7576 15.3188 22.0414 14.035 22.0414 12.4514Z" fill="#BCBCBC"/>
<path d="M29.9267 12.4514C29.9267 10.8678 28.6429 9.58398 27.0593 9.58398C25.4757 9.58398 24.1919 10.8678 24.1919 12.4514C24.1919 14.035 25.4757 15.3188 27.0593 15.3188C28.6429 15.3188 29.9267 14.035 29.9267 12.4514Z" fill="#BCBCBC"/>
</g>
<path d="M1.90332 8.69825C1.90332 5.1084 4.81347 2.19824 8.40332 2.19824H192.403C195.993 2.19824 198.903 5.10839 198.903 8.69824V111.695C198.903 115.285 195.993 118.195 192.403 118.195H8.40332C4.81347 118.195 1.90332 115.285 1.90332 111.695V8.69825Z" stroke="#B6B1AF" stroke-width="3"/>
<defs>
<clipPath id="clip0_4897_13042">
<path d="M0.40332 8.69825C0.40332 4.27997 3.98504 0.698242 8.40332 0.698242H192.403C196.822 0.698242 200.403 4.27996 200.403 8.69824V111.695C200.403 116.113 196.822 119.695 192.403 119.695H8.40332C3.98505 119.695 0.40332 116.113 0.40332 111.695V8.69825Z" fill="white"/>
</clipPath>
<clipPath id="clip1_4897_13042">
<rect width="5.73477" height="5.73477" fill="white" transform="translate(187.367 27.999)"/>
</clipPath>
<clipPath id="clip2_4897_13042">
<rect width="5.73477" height="5.73477" fill="white" transform="translate(174.105 27.999)"/>
</clipPath>
</defs>
</svg>
